# xmcd
#
# Track frame offsets:
#	150
#	10185
#	21435
#	33720
#	46343
#	55148
#	66631
#	78474
#	89154
#	102722
#	114670
#	124128
#	136878
#	151466
#
# Disc length: 2197 seconds
#
# Revision: 1
# Processed by: cddbd v1.5.2PL0 Copyright (c) Steve Scherf et al.
# Submitted via: audiograbber 1.83.01
#
DISCID=cd08930e
DTITLE=Jim Reeves - Golden Records
DYEAR=1970
DGENRE=Country
TTITLE0=The Wreck Of The Number Nine
TTITLE1=Welcome To My World
TTITLE2=Bimbo
TTITLE3=(There'll Be Blue Birds Over) The White Cliffs Of Dover
TTITLE4=I Won't Forget You
TTITLE5=Mexican Joe
TTITLE6=A Letter To My Heart
TTITLE7=Just Walking In The Rain
TTITLE8=The Streets Of Laredo
TTITLE9=I Love You Because
TTITLE10=Missing Angel
TTITLE11=Danny Boy
TTITLE12=Blue Side Of Lonesome
TTITLE13=Auf Wiedersehn, Sweetheart
EXTD=
EXTT0=
EXTT1=
EXTT2=
EXTT3=
EXTT4=
EXTT5=
EXTT6=
EXTT7=
EXTT8=
EXTT9=
EXTT10=
EXTT11=
EXTT12=
EXTT13=
PLAYORDER=
